<svg width="1400" height="178" viewBox="0 0 1400 178" fill="none" xmlns="http://www.w3.org/2000/svg">
<g clip-path="url(#clip0_50_2573)">
<path d="M1240.77 89.603L1241.12 89.2495L1240.77 88.8959L1153.32 1.44653H1227.46L1315.26 89.2495L1227.46 177.052H1153.32L1240.77 89.603Z" stroke="#00FF85"/>
<path d="M1366.37 89.603L1366.72 89.2495L1366.37 88.8959L1278.92 1.44653H1353.06L1440.86 89.2495L1353.06 177.052H1278.92L1366.37 89.603Z" stroke="#00FF85"/>
<path d="M274.253 89.603L274.606 89.2495L274.253 88.8959L186.804 1.44653H260.942L348.745 89.2495L260.942 177.052H186.804L274.253 89.603Z" stroke="#00FF85"/>
<path d="M153.279 89.603L153.633 89.2495L153.279 88.8959L65.83 1.44653H139.969L227.771 89.2495L139.969 177.052H65.83L153.279 89.603Z" stroke="#00FF85"/>
<path d="M32.3059 89.603L32.6594 89.2495L32.3059 88.8959L-55.1434 1.44653H18.9951L106.798 89.2495L18.9951 177.052H-55.1435L32.3059 89.603Z" stroke="#00FF85"/>
</g>
<defs>
<clipPath id="clip0_50_2573">
<rect width="1487" height="177" fill="white" transform="translate(-57 0.946533)"/>
</clipPath>
</defs>
</svg>
