<svg width="43" height="42" viewBox="0 0 43 42" fill="none" xmlns="http://www.w3.org/2000/svg">
<path d="M21.8051 7.53815C14.3249 7.53815 8.26099 13.602 8.26099 21.0823C8.26099 28.5625 14.3249 34.6264 21.8051 34.6264C29.2853 34.6264 35.3492 28.5625 35.3492 21.0823C35.3492 13.602 29.2853 7.53815 21.8051 7.53815ZM27.6997 27.1944C27.5275 27.489 27.2175 27.6534 26.8992 27.6534C26.7405 27.6534 26.5797 27.6126 26.4327 27.5267C23.9988 26.1043 21.1871 25.8757 19.2564 25.9344C17.1178 25.9995 15.5495 26.4217 15.5339 26.426C15.0409 26.5606 14.5314 26.2705 14.3962 25.7776C14.261 25.2848 14.5501 24.7756 15.0429 24.6399C15.1136 24.6204 16.8012 24.162 19.1481 24.0846C20.5305 24.039 21.8613 24.1353 23.1031 24.3709C24.6758 24.6693 26.1105 25.193 27.3673 25.9275C27.809 26.1855 27.9578 26.7528 27.6997 27.1944ZM29.4216 23.6182C29.2176 23.9672 28.8505 24.1618 28.4734 24.1619C28.2854 24.1619 28.0949 24.1136 27.9208 24.0118C25.0379 22.3269 21.7072 22.0563 19.4204 22.1258C16.8871 22.2029 15.0293 22.7029 15.0109 22.708C14.4271 22.8673 13.8235 22.5239 13.6633 21.94C13.5032 21.3562 13.8456 20.7532 14.4293 20.5923C14.513 20.5693 16.5121 20.0262 19.292 19.9346C20.9296 19.8806 22.5059 19.9947 23.9768 20.2737C25.8398 20.6272 27.5392 21.2475 29.0279 22.1175C29.5511 22.4232 29.7273 23.0951 29.4216 23.6182ZM30.4801 20.3665C30.2495 20.3665 30.0159 20.3072 29.8023 20.1824C22.9483 16.1768 14.0573 18.5582 13.9683 18.5827C13.2518 18.7802 12.511 18.3593 12.3136 17.6428C12.1162 16.9263 12.537 16.1854 13.2535 15.9881C13.3562 15.9598 15.8083 15.2937 19.2182 15.1813C21.2269 15.1152 23.1604 15.255 24.9645 15.5973C27.2497 16.0308 29.3343 16.7916 31.1603 17.8588C31.802 18.2338 32.0182 19.0579 31.6432 19.6996C31.393 20.1278 30.9427 20.3665 30.4801 20.3665Z" fill="white"/>
</svg>
