<svg width="43" height="42" viewBox="0 0 43 42" fill="none" xmlns="http://www.w3.org/2000/svg">
<path d="M7.28444 30.0394C10.4105 30.2154 13.1441 29.4846 15.8101 27.5494C13.117 27.0893 11.2495 25.8578 10.2346 23.3137C11.0195 23.2054 11.7097 23.4084 12.5216 23.0836C9.8692 21.9198 8.15054 20.1741 8.08287 17.1563C8.9219 17.2239 9.55795 17.7788 10.5594 17.6976C8.12348 15.3158 7.37917 12.7175 8.90837 9.56441C11.4525 12.4875 14.4297 14.4768 18.07 15.4106C18.273 15.4647 18.4625 15.5188 18.6655 15.5594C19.5992 15.7759 20.7089 16.2361 21.2773 16.1684C22.2517 16.0466 21.2773 14.9234 21.5209 13.4618C22.2923 8.91484 27.2994 6.84433 31.0073 9.51028C32.09 10.2952 32.9425 10.2816 34.0116 9.808C34.5664 9.56441 35.1348 9.32082 35.7979 9.03664C35.6491 10.3358 34.6476 11.053 33.8492 12.0138C34.7559 12.2168 35.4867 11.9597 36.3257 11.6891C36.0415 12.6228 35.3378 13.1506 34.7018 13.6648C34.0387 14.1926 33.7815 14.7475 33.7545 15.6135C33.3485 28.7268 18.449 38.8628 8.25881 30.7973C7.27092 30.0124 8.23173 30.7973 7.28444 30.0394Z" fill="white"/>
</svg>
